REM DIRINDEX 1\2,1\3
REM DIRNAME folder01,folder02,folder03
TITLE ""
FILE "0561-0600.mp3" MP3
  TRACK 01 AUDIO
    TITLE "0:"
    INDEX 01 00:00:00
  TRACK 02 AUDIO
    TITLE "2:cjc039_0561"
    INDEX 01 00:00:27
  TRACK 03 AUDIO
    TITLE "0:"
    INDEX 01 00:01:52
  TRACK 04 AUDIO
    TITLE "2:cjc039_0562"
    INDEX 01 00:02:28
  TRACK 05 AUDIO
    TITLE "0:"
    INDEX 01 00:03:53
  TRACK 06 AUDIO
    TITLE "2:cjc039_0563"
    INDEX 01 00:04:36
  TRACK 07 AUDIO
    TITLE "0:"
    INDEX 01 00:05:59
  TRACK 08 AUDIO
    TITLE "2:cjc039_0564"
    INDEX 01 00:06:33
  TRACK 09 AUDIO
    TITLE "0:"
    INDEX 01 00:07:56
  TRACK 10 AUDIO
    TITLE "2:cjc039_0565"
    INDEX 01 00:08:32
  TRACK 11 AUDIO
    TITLE "0:"
    INDEX 01 00:09:69
  TRACK 12 AUDIO
    TITLE "2:cjc039_0566"
    INDEX 01 00:10:45
  TRACK 13 AUDIO
    TITLE "0:"
    INDEX 01 00:11:50
  TRACK 14 AUDIO
    TITLE "2:cjc039_0567"
    INDEX 01 00:12:26
  TRACK 15 AUDIO
    TITLE "0:"
    INDEX 01 00:13:57
  TRACK 16 AUDIO
    TITLE "2:cjc039_0568"
    INDEX 01 00:14:35
  TRACK 17 AUDIO
    TITLE "0:"
    INDEX 01 00:15:50
  TRACK 18 AUDIO
    TITLE "2:cjc039_0569"
    INDEX 01 00:16:32
  TRACK 19 AUDIO
    TITLE "0:"
    INDEX 01 00:17:57
  TRACK 20 AUDIO
    TITLE "2:cjc039_0570"
    INDEX 01 00:18:39
  TRACK 21 AUDIO
    TITLE "0:"
    INDEX 01 00:19:50
  TRACK 22 AUDIO
    TITLE "2:cjc039_0571"
    INDEX 01 00:20:30
  TRACK 23 AUDIO
    TITLE "0:"
    INDEX 01 00:21:51
  TRACK 24 AUDIO
    TITLE "2:cjc039_0572"
    INDEX 01 00:22:32
  TRACK 25 AUDIO
    TITLE "0:"
    INDEX 01 00:24:12
  TRACK 26 AUDIO
    TITLE "2:cjc039_0573"
    INDEX 01 00:24:63
  TRACK 27 AUDIO
    TITLE "0:"
    INDEX 01 00:26:15
  TRACK 28 AUDIO
    TITLE "2:cjc039_0574"
    INDEX 01 00:26:62
  TRACK 29 AUDIO
    TITLE "0:"
    INDEX 01 00:28:08
  TRACK 30 AUDIO
    TITLE "2:cjc039_0575"
    INDEX 01 00:28:62
  TRACK 31 AUDIO
    TITLE "0:"
    INDEX 01 00:30:14
  TRACK 32 AUDIO
    TITLE "2:cjc039_0576"
    INDEX 01 00:30:71
  TRACK 33 AUDIO
    TITLE "0:"
    INDEX 01 00:32:21
  TRACK 34 AUDIO
    TITLE "2:cjc039_0577"
    INDEX 01 00:33:03
  TRACK 35 AUDIO
    TITLE "0:"
    INDEX 01 00:34:47
  TRACK 36 AUDIO
    TITLE "2:cjc039_0578"
    INDEX 01 00:35:25
  TRACK 37 AUDIO
    TITLE "0:"
    INDEX 01 00:36:44
  TRACK 38 AUDIO
    TITLE "2:cjc039_0579"
    INDEX 01 00:37:28
  TRACK 39 AUDIO
    TITLE "0:"
    INDEX 01 00:38:63
  TRACK 40 AUDIO
    TITLE "2:cjc039_0580"
    INDEX 01 00:39:41
  TRACK 41 AUDIO
    TITLE "0:"
    INDEX 01 00:40:58
  TRACK 42 AUDIO
    TITLE "2:cjc039_0581"
    INDEX 01 00:41:38
  TRACK 43 AUDIO
    TITLE "0:"
    INDEX 01 00:42:59
  TRACK 44 AUDIO
    TITLE "2:cjc039_0582"
    INDEX 01 00:43:40
  TRACK 45 AUDIO
    TITLE "0:"
    INDEX 01 00:44:48
  TRACK 46 AUDIO
    TITLE "2:cjc039_0583"
    INDEX 01 00:45:32
  TRACK 47 AUDIO
    TITLE "0:"
    INDEX 01 00:46:62
  TRACK 48 AUDIO
    TITLE "2:cjc039_0584"
    INDEX 01 00:47:32
  TRACK 49 AUDIO
    TITLE "0:"
    INDEX 01 00:48:49
  TRACK 50 AUDIO
    TITLE "2:cjc039_0585"
    INDEX 01 00:49:25
  TRACK 51 AUDIO
    TITLE "0:"
    INDEX 01 00:50:39
  TRACK 52 AUDIO
    TITLE "2:cjc039_0586"
    INDEX 01 00:51:15
  TRACK 53 AUDIO
    TITLE "0:"
    INDEX 01 00:52:47
  TRACK 54 AUDIO
    TITLE "2:cjc039_0587"
    INDEX 01 00:53:25
  TRACK 55 AUDIO
    TITLE "0:"
    INDEX 01 00:54:62
  TRACK 56 AUDIO
    TITLE "2:cjc039_0588"
    INDEX 01 00:55:32
  TRACK 57 AUDIO
    TITLE "0:"
    INDEX 01 00:57:05
  TRACK 58 AUDIO
    TITLE "2:cjc039_0589"
    INDEX 01 00:57:48
  TRACK 59 AUDIO
    TITLE "0:"
    INDEX 01 00:59:18
  TRACK 60 AUDIO
    TITLE "2:cjc039_0590"
    INDEX 01 00:59:71
  TRACK 61 AUDIO
    TITLE "0:"
    INDEX 01 01:01:21
  TRACK 62 AUDIO
    TITLE "2:cjc039_0591"
    INDEX 01 01:01:70
  TRACK 63 AUDIO
    TITLE "0:"
    INDEX 01 01:03:47
  TRACK 64 AUDIO
    TITLE "2:cjc039_0592"
    INDEX 01 01:04:29
  TRACK 65 AUDIO
    TITLE "0:"
    INDEX 01 01:06:22
  TRACK 66 AUDIO
    TITLE "2:cjc039_0593"
    INDEX 01 01:06:73
  TRACK 67 AUDIO
    TITLE "0:"
    INDEX 01 01:08:19
  TRACK 68 AUDIO
    TITLE "2:cjc039_0594"
    INDEX 01 01:08:72
  TRACK 69 AUDIO
    TITLE "0:"
    INDEX 01 01:10:18
  TRACK 70 AUDIO
    TITLE "2:cjc039_0595"
    INDEX 01 01:10:69
  TRACK 71 AUDIO
    TITLE "0:"
    INDEX 01 01:12:38
  TRACK 72 AUDIO
    TITLE "2:cjc039_0596"
    INDEX 01 01:13:18
  TRACK 73 AUDIO
    TITLE "0:"
    INDEX 01 01:14:74
  TRACK 74 AUDIO
    TITLE "2:cjc039_0597"
    INDEX 01 01:15:52
  TRACK 75 AUDIO
    TITLE "0:"
    INDEX 01 01:17:02
  TRACK 76 AUDIO
    TITLE "2:cjc039_0598"
    INDEX 01 01:17:51
  TRACK 77 AUDIO
    TITLE "0:"
    INDEX 01 01:18:66
  TRACK 78 AUDIO
    TITLE "2:cjc039_0599"
    INDEX 01 01:19:46
  TRACK 79 AUDIO
    TITLE "0:"
    INDEX 01 01:20:53
  TRACK 80 AUDIO
    TITLE "2:cjc039_0600"
    INDEX 01 01:21:37
  TRACK 81 AUDIO
    TITLE "0:"
    INDEX 01 01:22:56
